<svg id="Layer_3" data-name="Layer 3" xmlns="http://www.w3.org/2000/svg" viewBox="0 0 176.12 57.25"><defs><style>.cls-1{fill:#260859;}.cls-2{fill:#b0bc22;}</style></defs><title>logo</title><path class="cls-1" d="M264.86,104.41a8.82,8.82,0,0,0-1.64-2.31,8.51,8.51,0,0,0-2.07-1.54,12.87,12.87,0,0,0-2-.87,6,6,0,0,0,1.54-.82,7.85,7.85,0,0,0,1.52-1.42,7.55,7.55,0,0,0,1.16-1.95,6.49,6.49,0,0,0,.46-2.5,9.45,9.45,0,0,0-.51-3,6.3,6.3,0,0,0-1.81-2.69A9.85,9.85,0,0,0,258,85.39a17.78,17.78,0,0,0-5.59-.75h-13v32.12h13q6.45,0,9.8-2.19t3.35-7A6.93,6.93,0,0,0,264.86,104.41ZM247.67,90.71h3.71a5.85,5.85,0,0,1,1.37.17,3.71,3.71,0,0,1,1.25.55,2.74,2.74,0,0,1,.89,1.08,3.92,3.92,0,0,1,.34,1.71,2.81,2.81,0,0,1-1.18,2.58,4.89,4.89,0,0,1-2.67.75h-3.71V90.71Zm8.72,18.2a3.18,3.18,0,0,1-1.2,1.16,4.71,4.71,0,0,1-1.59.51,11.59,11.59,0,0,1-1.59.12h-4.33v-7.61H252a9.74,9.74,0,0,1,1.59.14,5.16,5.16,0,0,1,1.59.53,3.25,3.25,0,0,1,1.2,1.13,3.55,3.55,0,0,1,.48,2A3.88,3.88,0,0,1,256.39,108.91Z" transform="translate(-218.88 -83.77)"/><polygon class="cls-1" points="75.07 25.62 59.47 25.62 59.47 20.13 71.46 20.13 71.46 13.19 59.47 13.19 59.47 8.23 74.06 8.23 74.06 0.87 50.95 0.87 50.95 32.99 75.07 32.99 75.07 25.62"/><path class="cls-1" d="M313.54,109.63a3.94,3.94,0,0,1-1.2.41,7.38,7.38,0,0,1-1.3.12,10.31,10.31,0,0,1-4.77-1.11,13.81,13.81,0,0,1-3.52-2.46l-5.15,6.21a16.66,16.66,0,0,0,5.51,3.44,22.21,22.21,0,0,0,8.07,1.28,16.91,16.91,0,0,0,5.08-.75,13.22,13.22,0,0,0,4.14-2.09,10.32,10.32,0,0,0,2.79-3.23,8.34,8.34,0,0,0,1-4.09,9.68,9.68,0,0,0-.87-4.31,9.34,9.34,0,0,0-2.22-2.94,10.93,10.93,0,0,0-3-1.88q-1.69-.7-3.32-1.23l-1.54-.48-1.9-.65a7.82,7.82,0,0,1-1.52-.7,3.19,3.19,0,0,1-1-.91,2.17,2.17,0,0,1-.36-1.25,2,2,0,0,1,.31-1.13,2.44,2.44,0,0,1,.82-0.75,4.15,4.15,0,0,1,1.13-.43,5.55,5.55,0,0,1,1.25-.14,9.35,9.35,0,0,1,3.76.79,17.76,17.76,0,0,1,3.52,2l4.33-5.49a10.08,10.08,0,0,0-1.54-1.3,13.4,13.4,0,0,0-2.46-1.35,19.07,19.07,0,0,0-3.37-1.06,19.56,19.56,0,0,0-4.29-.43,16.43,16.43,0,0,0-5.35.79,11,11,0,0,0-3.88,2.22,9.53,9.53,0,0,0-2.38,3.32,10.3,10.3,0,0,0-.82,4.12,7.5,7.5,0,0,0,.75,3.44,8.7,8.7,0,0,0,2,2.55,12.49,12.49,0,0,0,2.72,1.85,20.56,20.56,0,0,0,3,1.25l1.78,0.58a17.31,17.31,0,0,1,3.73,1.64,2.41,2.41,0,0,1,1.28,2.07,2.14,2.14,0,0,1-.34,1.25A2.51,2.51,0,0,1,313.54,109.63Z" transform="translate(-218.88 -83.77)"/><path class="cls-1" d="M332.3,112.86a15.53,15.53,0,0,0,5.27,3.47,17.88,17.88,0,0,0,6.79,1.25,17.44,17.44,0,0,0,14.3-6.79l-5.73-5.39a12.14,12.14,0,0,1-3.44,3.11,9.24,9.24,0,0,1-4.55,1,8.73,8.73,0,0,1-3.49-.67,7.74,7.74,0,0,1-2.67-1.88,8.43,8.43,0,0,1-1.71-2.84A10.84,10.84,0,0,1,337,97a8.39,8.39,0,0,1,1.66-2.82,7.47,7.47,0,0,1,2.67-1.88,9.18,9.18,0,0,1,3.61-.67,8.28,8.28,0,0,1,4.29,1.11,10.81,10.81,0,0,1,3.23,2.94L358.13,90a13.26,13.26,0,0,0-6-4.86,21.07,21.07,0,0,0-7.75-1.4A17.59,17.59,0,0,0,337.57,85a15.57,15.57,0,0,0-5.3,3.56A15.93,15.93,0,0,0,328.86,94a18.56,18.56,0,0,0-1.2,6.77,18.18,18.18,0,0,0,1.23,6.79A15.67,15.67,0,0,0,332.3,112.86Z" transform="translate(-218.88 -83.77)"/><path class="cls-1" d="M371.42,84.64l-11.8,32.12h8.81l2.12-6.65h10.74l2.07,6.65h9.2l-3.49-9.87h0L381.2,84.64h-9.78Zm0.87,19.26L376,92.1l3.56,11.8h-7.27Z" transform="translate(-218.88 -83.77)"/><polygon class="cls-2" points="13.16 40.7 13.15 8.72 12.63 8.72 0 57.25 176.12 40.69 13.16 40.7"/></svg>