<svg width="40" height="40" viewBox="0 0 40 40" fill="none" xmlns="http://www.w3.org/2000/svg">
<g id="BRE_logo_White" clip-path="url(#clip0_796_7769)">
<g id="Group">
<path id="Vector" d="M13.512 23.576V18.56C13.512 17.9 12.976 17.364 12.316 17.364H8.45204C8.34404 17.364 8.25204 17.452 8.25204 17.564V24.576C8.25204 24.688 8.34004 24.776 8.45204 24.776H12.316C12.976 24.772 13.512 24.236 13.512 23.576ZM32.828 19.712V18.6C32.828 17.94 32.292 17.404 31.632 17.404H28.844C28.184 17.404 27.648 17.94 27.648 18.6V19.716C27.648 19.824 27.736 19.916 27.848 19.916H32.628C32.74 19.912 32.828 19.824 32.828 19.712ZM34.82 18.6V20.812C34.82 21.416 34.328 21.908 33.724 21.908H27.848C27.736 21.908 27.648 21.996 27.648 22.108V23.62C27.648 24.28 28.184 24.816 28.844 24.816H34.58C34.692 24.816 34.78 24.904 34.78 25.016V26.608C34.78 26.72 34.692 26.808 34.58 26.808H28.844C27.084 26.808 25.656 25.38 25.656 23.62V18.6C25.656 16.84 27.084 15.412 28.844 15.412H31.632C33.392 15.412 34.82 16.84 34.82 18.6ZM24.86 17.164C24.86 17.272 24.772 17.364 24.66 17.364H19.804C19.144 17.364 18.608 17.9 18.608 18.56V26.524C18.608 26.636 18.52 26.724 18.408 26.724H16.816C16.704 26.724 16.616 26.636 16.616 26.524V18.56C16.616 16.8 18.044 15.372 19.804 15.372H24.664C24.776 15.372 24.864 15.46 24.864 15.572V17.164H24.86ZM15.5 23.576C15.5 25.336 14.072 26.764 12.316 26.764H8.45204C7.24404 26.764 6.26004 25.784 6.26004 24.572V10.712C6.26004 10.6 6.34804 10.512 6.46004 10.512H8.05204C8.16404 10.512 8.25204 10.6 8.25204 10.712V15.172C8.25204 15.284 8.34004 15.372 8.45204 15.372H12.316C14.076 15.372 15.5 16.8 15.5 18.56V23.576ZM39.96 20C39.96 8.97604 31.024 0.0400391 20 0.0400391C8.97604 0.0400391 0.0400391 8.97604 0.0400391 20C0.0400391 31.024 8.97604 39.96 20 39.96C31.024 39.96 39.96 31.024 39.96 20Z" fill="white"/>
</g>
</g>
<defs>
<clipPath id="clip0_796_7769">
<rect width="40" height="40" fill="white"/>
</clipPath>
</defs>
</svg>
